#!OML:ASF E:\CV Data\Top Level 1\Subject 1\Session 1\player.ASF
:FULLY-SPECIFIED
:DEGREES
523
root -1.59213 16.4469 9.87594 -174.525 -203.568 164.148
lowerback 25.7749 5.11418 0.112429
upperback 3.3511 6.82188 1.05433
thorax -10.6662 3.20261 -1.21662
lowerneck -1.00552 -16.1618 -18.8394
upperneck -13.1549 -20.6011 36.0674
head 2.98954 -10.8788 13.1835
rclavicle -3.10104e-014 -2.94201e-014
rhumerus 356.926 10.1875 284.614
rradius 50.208
rwrist -12.5512
rhand -31.0844 16.1403
rfingers 7.12502
rthumb -4.36462 -13.7948
lclavicle -3.10104e-014 -2.94201e-014
lhumerus -38.5794 7.75836 78.2197
lradius 55.4662
lwrist 32.1879
lhand -11.9328 21.5766
lfingers 7.12502
lthumb 14.1217 51.0767
rfemur -14.8289 -19.4483 23.1611
rtibia 51.9153
rfoot -22.9089 1.57542
rtoes -22.047
lfemur -52.1796 -3.2147 1.66979
ltibia 39.4499
lfoot 4.00774 -6.78016
ltoes -4.34805
524
root -1.67059 16.4152 9.84385 -175.248 -203.244 164.315
lowerback 25.6836 5.02679 0.102511
upperback 3.33638 6.69652 0.959198
thorax -10.6245 3.14486 -1.26675
lowerneck -0.957316 -16.0666 -18.9393
upperneck -12.4636 -20.6334 35.7857
head 3.14024 -10.8452 13.0798
rclavicle 7.31528e-014 -5.00937e-014
rhumerus 357.227 10.8976 285.242
rradius 50.6984
rwrist -11.6389
rhand -30.8755 15.778
rfingers 7.12502
rthumb -4.16287 -14.161
lclavicle 7.31528e-014 -5.00937e-014
lhumerus -37.9788 7.55922 78.9681
lradius 56.0202
lwrist 31.9505
lhand -12.4294 21.6953
lfingers 7.12502
lthumb 13.6431 51.2281
rfemur -14.7106 -19.4718 23.6278
rtibia 52.1351
rfoot -23.5712 -0.24528
rtoes -22.0527
lfemur -51.531 -3.3655 1.80233
ltibia 39.6132
lfoot 4.0292 -6.63734
ltoes -4.70635
525
root -1.74969 16.3867 9.80903 -175.952 -202.905 164.504
lowerback 25.5805 4.94944 0.0999287
upperback 3.31535 6.58648 0.866032
thorax -10.5834 3.0939 -1.32358
lowerneck -0.876292 -15.9746 -19.0392
upperneck -11.7594 -20.6737 35.4505
head 3.28191 -10.8175 12.959
rclavicle -8.11041e-014 3.4191e-014
rhumerus 357.494 11.6974 285.819
rradius 51.358
rwrist -11.7
rhand -30.5718 15.6213
rfingers 7.12502
rthumb -3.86969 -14.3233
lclavicle -8.11041e-014 3.4191e-014
lhumerus -37.335 7.30001 79.7357
lradius 56.548
lwrist 31.7198
lhand -13.0007 21.8149
lfingers 7.12502
lthumb 13.0925 51.3839
rfemur -14.5093 -19.3465 24.0109
rtibia 52.5666
rfoot -24.1349 -2.31305
rtoes -22.1977
lfemur -50.8452 -3.53636 1.92857
ltibia 39.6916
lfoot 4.10047 -6.47217
ltoes -5.06406
526
root -1.82908 16.3616 9.772 -176.636 -202.529 164.706
lowerback 25.4539 4.89369 0.10712
upperback 3.29118 6.50765 0.777678
thorax -10.533 3.05738 -1.38944
lowerneck -0.75764 -15.8824 -19.1625
upperneck -11.0521 -20.717 35.0937
head 3.41848 -10.7947 12.8387
rclavicle 1.00983e-013 -1.27222e-014
rhumerus 357.725 12.5704 286.348
rradius 52.1881
rwrist -12.669
rhand -30.2337 15.6617
rfingers 7.12502
rthumb -3.54312 -14.2886
lclavicle 1.00983e-013 -1.27222e-014
lhumerus -36.6498 6.96298 80.5294
lradius 57.055
lwrist 31.5281
lhand -13.6441 21.9102
lfingers 7.12502
lthumb 12.4722 51.518
rfemur -14.2319 -19.0244 24.3151
rtibia 53.0961
rfoot -24.6286 -4.38398
rtoes -22.4579
lfemur -50.1155 -3.71729 2.06193
ltibia 39.6863
lfoot 4.21966 -6.2684
ltoes -5.40056
527
root -1.90872 16.3393 9.73314 -177.297 -202.129 164.915
lowerback 25.3107 4.85049 0.128091
upperback 3.26415 6.45 0.699157
thorax -10.4768 3.03052 -1.45813
lowerneck -0.634419 -15.7929 -19.3057
upperneck -10.3353 -20.7634 34.7099
head 3.55628 -10.7738 12.7126
rclavicle -2.38542e-014 7.15625e-015
rhumerus 357.931 13.4952 286.826
rradius 53.1681
rwrist -14.3009
rhand -29.8518 15.8519
rfingers 7.12502
rthumb -3.17429 -14.1042
lclavicle -2.38542e-014 7.15625e-015
lhumerus -35.9285 6.57203 81.3454
lradius 57.5493
lwrist 31.3837
lhand -14.3592 21.9825
lfingers 7.12502
lthumb 11.7828 51.631
rfemur -13.8813 -18.4899 24.5533
rtibia 53.5905
rfoot -25.1172 -6.24977
rtoes -22.9012
lfemur -49.3581 -3.91167 2.20814
ltibia 39.6093
lfoot 4.3854 -6.02612
ltoes -5.68975
528
root -1.98834 16.3188 9.69277 -177.933 -201.71 165.119
lowerback 25.153 4.81821 0.17095
upperback 3.23474 6.41398 0.634477
thorax -10.4148 3.01332 -1.52995
lowerneck -0.528323 -15.7107 -19.4616
upperneck -9.60679 -20.8167 34.2987
head 3.69989 -10.755 12.5765
rclavicle 3.97569e-014 -7.07673e-014
rhumerus 358.11 14.4161 287.243
rradius 54.2666
rwrist -16.2805
rhand -29.4195 16.1338
rfingers 7.12502
rthumb -2.75683 -13.8282
lclavicle 3.97569e-014 -7.07673e-014
lhumerus -35.174 6.13332 82.1832
lradius 58.0395
lwrist 31.2912
lhand -15.1326 22.0181
lfingers 7.12502
lthumb 11.0369 51.708
rfemur -13.4688 -17.7432 24.7467
rtibia 53.9382
rfoot -25.6211 -7.79748
rtoes -23.3532
lfemur -48.5921 -4.11867 2.37789
ltibia 39.4818
lfoot 4.58967 -5.74521
ltoes -5.9112
529
root -2.06703 16.2993 9.65151 -178.54 -201.275 165.309
lowerback 24.9708 4.79402 0.242631
upperback 3.20196 6.39789 0.584824
thorax -10.3421 3.00494 -1.60601
lowerneck -0.453381 -15.631 -19.6342
upperneck -8.86553 -20.868 33.873
head 3.8527 -10.7333 12.4368
rclavicle 3.33958e-014 4.6118e-014
rhumerus 358.26 15.298 287.588
rradius 55.4436
rwrist -18.2562
rhand -28.9352 16.4315
rfingers 7.12502
rthumb -2.28915 -13.5359
lclavicle 3.33958e-014 4.6118e-014
lhumerus -34.4024 5.65504 83.0366
lradius 58.5471
lwrist 31.2508
lhand -15.9403 22.029
lfingers 7.12502
lthumb 10.2577 51.7589
rfemur -12.9936 -16.8179 24.9104
rtibia 54.0829
rfoot -26.1787 -9.0575
rtoes -23.6706
lfemur -47.8365 -4.33768 2.57939
ltibia 39.3232
lfoot 4.82288 -5.42254
ltoes -6.0604
530
root -2.14416 16.2802 9.60991 -179.113 -200.834 165.474
lowerback 24.7566 4.77134 0.350058
upperback 3.16696 6.39514 0.553358
thorax -10.2532 3.00235 -1.68369
lowerneck -0.429583 -15.5568 -19.8122
upperneck -8.10462 -20.9192 33.4251
head 4.01802 -10.7078 12.2865
rclavicle 1.03368e-014 -4.77083e-015
rhumerus 358.387 16.1318 287.857
rradius 56.6568
rwrist -19.9128
rhand -28.4576 16.6949
rfingers 7.12502
rthumb -1.82784 -13.277
lclavicle 1.03368e-014 -4.77083e-015
lhumerus -33.6248 5.15406 83.8972
lradius 59.0831
lwrist 31.2359
lhand -16.7314 21.9947
lfingers 7.12502
lthumb 9.49453 51.7608
rfemur -12.4554 -15.7658 25.0604
rtibia 54.0236
rfoot -26.7377 -10.0989
rtoes -23.9033
lfemur -47.1081 -4.56497 2.81993
ltibia 39.1498
lfoot 5.0726 -5.06686
ltoes -6.14348
531
root -2.21971 16.2616 9.56797 -179.635 -200.412 165.608
lowerback 24.4992 4.73873 0.495946
upperback 3.12374 6.39164 0.542575
thorax -10.1488 2.999 -1.75651
lowerneck -0.467339 -15.4867 -19.9913
upperneck -7.32298 -20.9659 32.9521
head 4.19604 -10.6759 12.1241
rclavicle -3.26007e-014 3.81667e-014
rhumerus 358.487 16.9285 288.048
rradius 57.8707
rwrist -21.0103
rhand -28.0662 16.8981
rfingers 7.12502
rthumb -1.44989 -13.0768
lclavicle -3.26007e-014 3.81667e-014
lhumerus -32.8537 4.64358 84.7601
lradius 59.6538
lwrist 31.2219
lhand -17.4863 21.9322
lfingers 7.12502
lthumb 8.76609 51.7302
rfemur -11.8859 -14.6561 25.2152
rtibia 53.7997
rfoot -27.238 -10.9474
rtoes -24.1579
lfemur -46.442 -4.78949 3.09412
ltibia 38.9679
lfoot 5.32857 -4.70726
ltoes -6.13472
532
root -2.29314 16.2439 9.5262 -180.098 -200.019 165.705
lowerback 24.1854 4.69028 0.685671
upperback 3.07069 6.38029 0.550775
thorax -10.0231 2.99156 -1.82608
lowerneck -0.566721 -15.4222 -20.1528
upperneck -6.53099 -21.0054 32.4407
head 4.37887 -10.6373 11.943
rclavicle 2.34566e-014 -1.59028e-015
rhumerus 358.554 17.7138 288.158
rradius 59.0602
rwrist -21.4302
rhand -27.8093 17.0397
rfingers 7.12502
rthumb -1.20175 -12.9367
lclavicle 2.34566e-014 -1.59028e-015
lhumerus -32.1002 4.12735 85.6152
lradius 60.2582
lwrist 31.1796
lhand -18.1445 21.8303
lfingers 7.12502
lthumb 8.13086 51.6539
rfemur -11.3186 -13.5546 25.3907
rtibia 53.4595
rfoot -27.6945 -11.6282
rtoes -24.3442
lfemur -45.8494 -4.99325 3.39739
ltibia 38.778
lfoot 5.57687 -4.36521
ltoes -5.98928
533
root -2.36451 16.2276 9.48453 -180.491 -199.669 165.769
lowerback 23.8144 4.62041 0.915227
upperback 3.00285 6.35174 0.575732
thorax -9.88149 2.97559 -1.8901
lowerneck -0.717325 -15.3625 -20.2842
upperneck -5.74498 -21.033 31.887
head 4.5571 -10.5918 11.742
rclavicle 9.81996e-014 -1.59028e-014
rhumerus 358.583 18.5065 288.184
rradius 60.2087
rwrist -21.1485
rhand -27.7022 17.1293
rfingers 7.12502
rthumb -1.09829 -12.8476
lclavicle 9.81996e-014 -1.59028e-014
lhumerus -31.3693 3.6061 86.4595
lradius 60.8784
lwrist 31.0582
lhand -18.7341 21.7306
lfingers 7.12502
lthumb 7.56184 51.5754
rfemur -10.7933 -12.5406 25.5954
rtibia 53.0506
rfoot -28.144 -12.1856
rtoes -24.4286
lfemur -45.3432 -5.15925 3.7146
ltibia 38.5757
lfoot 5.80369 -4.06776
ltoes -5.63044
